<?xml version="1.0" standalone="no"?>
<!DOCTYPE svg PUBLIC "-//W3C//DTD SVG 20010904//EN"
 "http://www.w3.org/TR/2001/REC-SVG-20010904/DTD/svg10.dtd">
<svg version="1.0" xmlns="http://www.w3.org/2000/svg"
 width="512.000000pt" height="512.000000pt" viewBox="0 0 512.000000 512.000000"
 preserveAspectRatio="xMidYMid meet">
<metadata>
Created by potrace 1.16, written by Peter Selinger 2001-2019
</metadata>
<g transform="translate(0.000000,512.000000) scale(0.100000,-0.100000)"
fill="#000000" stroke="none">
<path d="M2175 5104 c-76 -23 -189 -66 -195 -74 -3 -4 -21 -15 -40 -23 -52
-23 -110 -59 -139 -86 -14 -12 -39 -30 -56 -38 -16 -9 -43 -31 -58 -49 -16
-19 -42 -41 -58 -49 -16 -9 -29 -22 -29 -29 0 -8 -17 -29 -37 -46 -38 -34 -70
-74 -98 -123 -9 -15 -25 -37 -36 -48 -19 -19 -79 -140 -79 -159 0 -5 -7 -16
-15 -24 -22 -21 -73 -185 -87 -276 -7 -41 -17 -78 -22 -82 -16 -11 -15 -370 2
-375 6 -3 12 -18 12 -33 0 -58 70 -317 89 -330 4 -3 29 -49 55 -102 27 -54 52
-98 56 -98 5 0 20 -20 34 -44 14 -25 37 -53 51 -64 14 -11 25 -24 25 -28 0
-11 175 -184 186 -184 2 0 26 -16 53 -35 26 -19 53 -35 60 -35 6 0 11 -4 11
-9 0 -5 22 -20 50 -34 l49 -25 -45 -12 c-25 -7 -51 -18 -57 -25 -7 -6 -40 -28
-74 -49 -35 -22 -63 -42 -63 -46 0 -4 -20 -23 -43 -41 -24 -19 -63 -56 -86
-84 -23 -27 -56 -65 -72 -83 -16 -18 -39 -48 -50 -67 -12 -19 -25 -35 -29 -35
-9 0 -90 -126 -90 -141 0 -5 -6 -12 -13 -15 -8 -3 -34 -44 -58 -92 -24 -48
-47 -89 -51 -92 -4 -3 -26 -48 -49 -100 -23 -52 -45 -97 -50 -100 -8 -6 -72
-196 -84 -250 -4 -19 -11 -37 -16 -40 -4 -3 -16 -48 -25 -100 -26 -150 -13
-339 25 -370 4 -3 14 -17 24 -32 29 -46 71 -61 151 -55 78 5 148 31 191 71 15
14 33 26 40 26 12 0 213 197 252 247 l21 28 13 -30 c8 -16 19 -34 25 -40 7 -5
22 -28 33 -50 12 -22 34 -56 51 -75 16 -19 41 -49 55 -67 l25 -31 -40 -7 c-22
-4 -40 -10 -40 -15 0 -4 -27 -18 -61 -30 -33 -13 -73 -36 -89 -51 -16 -16 -33
-29 -39 -29 -12 0 -71 -71 -71 -85 0 -6 -9 -21 -21 -33 -31 -34 -45 -128 -31
-204 6 -34 15 -64 20 -67 5 -3 19 -24 30 -46 31 -62 118 -136 192 -165 19 -8
40 -19 47 -26 54 -52 454 -51 507 2 8 8 19 14 25 14 28 0 122 62 168 109 77
80 98 134 98 253 -1 76 2 98 13 98 11 0 12 -12 6 -56 -6 -54 11 -174 26 -174
3 0 16 -19 28 -43 33 -66 119 -139 202 -171 25 -10 47 -21 50 -26 10 -15 159
-40 244 -40 97 0 220 23 242 45 9 8 22 15 30 15 29 0 120 58 169 107 98 100
129 225 85 353 -12 36 -29 72 -38 81 -10 9 -34 34 -54 57 -21 22 -67 55 -105
73 -37 19 -70 36 -73 40 -7 8 -65 26 -113 34 -36 6 -38 7 -23 24 9 10 16 22
16 27 0 5 15 24 32 43 36 38 58 73 88 139 32 71 42 75 73 37 15 -19 27 -37 27
-40 0 -5 60 -69 109 -117 7 -7 32 -31 55 -54 22 -22 58 -51 79 -63 20 -13 37
-26 37 -31 0 -4 28 -19 63 -33 146 -58 212 -45 296 58 24 29 41 114 41 200 0
91 -26 276 -39 285 -5 3 -12 19 -16 35 -14 67 -78 255 -86 255 -5 0 -9 4 -9
10 0 16 -83 204 -96 218 -7 7 -28 42 -45 78 -18 36 -39 68 -46 71 -7 3 -13 9
-13 13 0 12 -68 122 -98 157 -15 17 -38 48 -52 69 -14 20 -44 55 -67 77 -24
22 -43 46 -43 53 0 8 -13 20 -29 28 -16 9 -41 30 -55 47 -15 18 -53 47 -84 66
-31 19 -59 38 -62 42 -6 10 -95 39 -130 43 -23 3 -22 5 15 22 22 10 45 24 50
30 6 6 30 24 55 38 25 15 63 42 84 60 36 31 174 167 215 213 25 28 91 133 91
145 0 6 5 10 10 10 11 0 90 162 90 185 0 8 7 20 15 28 36 37 85 306 85 478 0
150 -45 422 -75 452 -6 7 -15 25 -18 40 -11 41 -89 207 -98 207 -4 0 -21 24
-38 54 -17 29 -41 64 -54 77 -13 13 -41 47 -63 74 -21 28 -48 57 -59 65 -11 8
-36 29 -55 47 -48 45 -127 103 -139 103 -6 0 -11 4 -11 9 0 5 -33 26 -72 46
-40 21 -76 42 -79 47 -3 5 -53 25 -110 46 l-104 36 -375 3 c-311 2 -383 0
-425 -13z m485 -414 c41 -6 77 -15 78 -20 2 -6 11 -10 21 -10 34 0 188 -61
201 -80 3 -4 28 -22 55 -41 42 -29 155 -135 155 -146 0 -2 14 -22 30 -45 17
-22 30 -46 30 -53 0 -6 8 -20 19 -31 43 -46 81 -217 81 -363 0 -86 14 -161 30
-161 4 0 13 -19 20 -42 7 -24 16 -56 21 -72 5 -16 12 -66 15 -110 l7 -81 -109
0 c-80 0 -124 -5 -166 -19 -32 -10 -58 -22 -58 -26 0 -4 -14 -13 -30 -20 -17
-7 -44 -29 -61 -49 -17 -20 -39 -46 -50 -58 -32 -35 -52 -119 -46 -190 6 -63
29 -123 47 -123 6 0 10 -6 10 -14 0 -8 27 -39 60 -69 l60 -55 -52 -27 c-29
-15 -55 -31 -58 -36 -10 -15 -186 -68 -249 -75 -34 -3 -61 -11 -61 -15 0 -5
-49 -9 -110 -9 -60 0 -110 3 -110 8 0 4 -34 13 -75 19 -88 14 -221 57 -242 78
-8 9 -29 23 -46 31 -30 16 -30 17 -11 30 93 66 125 97 149 145 14 27 25 55 25
64 0 8 5 15 10 15 6 0 10 30 10 70 0 39 -4 70 -9 70 -5 0 -12 12 -16 27 -3 15
-15 39 -26 54 -10 15 -19 31 -19 36 0 4 -23 24 -52 43 -28 19 -56 40 -62 45
-17 17 -114 44 -181 50 -57 6 -157 -4 -199 -21 -18 -7 -19 -3 -13 72 7 94 35
220 51 237 25 25 35 76 40 202 5 137 38 288 69 320 9 8 19 25 23 38 10 31 61
104 106 152 21 22 38 43 38 47 0 8 117 88 130 88 5 0 10 4 10 8 0 18 149 82
191 82 10 0 19 5 21 10 7 23 183 35 298 20z m721 -1350 c14 0 19 -7 19 -27 0
-36 -26 -134 -38 -142 -4 -3 -16 -26 -26 -50 -10 -25 -26 -57 -37 -72 -10 -15
-19 -32 -19 -38 0 -5 -6 -14 -13 -18 -7 -4 -30 -29 -51 -55 -44 -54 -70 -60
-107 -25 -14 12 -37 30 -51 39 -36 24 -72 120 -64 171 11 67 45 125 87 149 21
12 39 25 39 29 0 8 81 36 125 43 17 2 50 2 74 0 24 -2 52 -4 62 -4z m-1396
-15 c22 -8 41 -19 43 -25 2 -5 10 -10 17 -10 8 0 35 -20 60 -44 56 -55 76
-121 57 -192 -21 -77 -138 -174 -211 -174 -11 0 -38 23 -62 53 -24 28 -47 55
-52 58 -10 8 -43 64 -68 119 -11 24 -24 47 -28 50 -10 6 -41 111 -41 139 0 14
8 22 28 27 15 3 32 7 37 9 29 10 185 2 220 -10z m332 -844 c12 -1 23 -5 25
-11 9 -26 467 -27 476 -1 2 6 16 11 30 11 15 0 61 9 102 19 93 24 92 24 108
22 17 -1 86 -65 198 -184 29 -29 55 -71 80 -127 9 -19 20 -37 25 -40 15 -10
67 -145 80 -210 7 -36 17 -68 21 -71 5 -3 13 -56 19 -118 9 -86 8 -140 -1
-225 -7 -61 -15 -113 -19 -116 -4 -3 -15 -36 -24 -74 -22 -91 -63 -192 -88
-217 -10 -10 -19 -24 -19 -30 0 -26 -101 -154 -169 -214 -19 -16 -46 -41 -60
-55 -25 -24 -76 -56 -131 -83 -14 -6 -27 -15 -30 -19 -16 -21 -144 -55 -266
-69 -72 -9 -118 -8 -192 1 -95 12 -254 56 -260 72 -2 5 -31 22 -63 39 -33 16
-71 43 -86 59 -14 17 -31 30 -37 30 -14 0 -110 103 -147 158 -18 26 -37 52
-43 57 -14 12 -83 168 -92 208 -3 15 -10 27 -14 27 -12 0 -39 133 -49 242 -6
59 -6 139 0 204 9 108 34 234 47 244 4 3 16 30 26 60 27 77 66 160 75 160 4 0
20 22 35 50 15 27 38 58 51 69 14 10 25 23 25 29 0 5 17 24 38 42 20 17 48 41
61 53 59 55 63 55 158 31 49 -13 98 -23 110 -23z m982 13 c22 -8 42 -22 45
-30 3 -8 10 -14 17 -14 17 0 99 -61 140 -105 21 -22 56 -59 78 -83 22 -24 48
-56 58 -73 10 -16 21 -29 25 -29 4 0 26 -29 49 -65 22 -36 44 -65 47 -65 4 0
12 -10 18 -23 34 -67 77 -143 88 -152 13 -11 96 -194 96 -212 0 -6 5 -13 11
-15 11 -4 88 -221 89 -250 0 -9 4 -18 9 -20 21 -7 45 -163 46 -288 0 -101 -3
-132 -18 -161 -31 -62 -102 -69 -209 -20 -27 12 -48 25 -48 29 0 4 -17 18 -37
32 -66 44 -223 213 -223 240 0 5 -8 14 -19 19 -10 6 -26 22 -35 36 -16 24 -16
30 -2 73 8 26 18 67 22 92 3 25 12 48 18 52 15 10 16 396 1 406 -6 4 -16 36
-24 71 -16 82 -60 218 -75 234 -6 7 -29 47 -51 90 -22 44 -48 83 -57 88 -10 5
-18 15 -18 21 0 10 -37 58 -87 111 -31 32 -16 36 46 11z m-1388 -23 c-12 -16
-34 -40 -49 -53 -29 -26 -38 -38 -80 -111 -15 -27 -36 -59 -48 -73 -11 -14
-36 -71 -55 -127 -19 -56 -37 -104 -41 -107 -14 -11 -40 -180 -45 -295 -4 -93
-1 -147 15 -244 12 -68 25 -127 30 -130 6 -3 15 -26 22 -51 11 -41 10 -46 -9
-61 -12 -10 -21 -20 -21 -24 0 -7 -39 -56 -83 -105 -25 -28 -102 -96 -147
-130 -25 -19 -49 -40 -55 -46 -18 -20 -113 -54 -149 -54 -62 0 -82 14 -101 71
-14 42 -17 74 -12 163 5 102 31 254 46 266 4 3 24 58 45 123 22 65 44 124 51
131 7 6 31 54 54 106 23 52 45 97 49 100 8 6 19 24 64 111 18 34 38 63 45 66
7 3 13 9 13 14 0 15 83 133 107 152 13 10 23 23 23 29 0 19 224 234 263 253
20 9 37 21 37 26 0 8 29 25 48 28 2 1 -6 -12 -17 -28z m1417 -1703 c35 -6 68
-16 75 -22 7 -7 32 -22 57 -34 58 -30 105 -63 116 -83 5 -9 17 -31 27 -49 28
-49 33 -127 12 -190 -24 -74 -99 -146 -185 -180 -19 -8 -40 -19 -47 -26 -15
-14 -145 -34 -221 -34 -73 1 -195 24 -200 39 -2 6 -10 11 -18 11 -24 0 -113
51 -138 79 -14 14 -36 39 -50 54 -37 42 -53 123 -36 190 l12 53 72 18 c75 18
128 36 136 46 3 3 37 20 75 37 39 18 84 44 100 57 74 61 63 60 213 34z m-1305
-9 c11 -7 30 -20 41 -31 11 -10 50 -33 86 -49 36 -17 67 -34 70 -38 9 -13 149
-51 241 -66 31 -5 37 -10 47 -44 37 -123 -33 -262 -159 -318 -21 -9 -39 -20
-39 -23 0 -19 -153 -50 -245 -50 -86 0 -255 33 -255 50 0 4 -20 17 -45 29 -75
37 -140 116 -156 188 -14 63 1 145 32 175 9 10 29 33 44 52 25 33 129 96 159
96 8 0 16 5 18 11 8 24 125 37 161 18z"/>
<path d="M2220 4174 c-59 -20 -93 -42 -117 -77 -29 -41 -53 -100 -53 -129 0
-10 -4 -18 -10 -18 -6 0 -10 -27 -10 -60 0 -33 4 -60 8 -60 4 0 14 -21 20 -47
37 -138 169 -208 285 -153 39 19 97 90 97 119 0 6 4 11 10 11 14 0 30 68 30
128 0 52 -17 142 -29 152 -4 3 -23 28 -43 56 -31 41 -47 54 -89 67 -52 17 -72
19 -99 11z m110 -116 c29 -23 39 -48 20 -48 -6 0 -13 6 -16 14 -7 19 -56 30
-91 21 -37 -9 -83 -65 -90 -110 -11 -71 47 -145 115 -145 44 0 102 27 112 53
5 12 9 16 9 9 2 -27 -31 -87 -64 -119 -56 -54 -125 -42 -161 30 -9 18 -22 35
-27 39 -14 9 -15 166 -1 176 5 4 18 24 27 44 32 69 105 85 167 36z"/>
<path d="M2830 4174 c-59 -20 -93 -42 -117 -77 -29 -41 -53 -100 -53 -129 0
-10 -4 -18 -10 -18 -6 0 -10 -27 -10 -60 0 -33 4 -60 8 -60 4 0 14 -21 20 -47
37 -138 169 -208 285 -153 39 19 97 90 97 119 0 6 4 11 10 11 14 0 30 68 30
128 0 52 -17 142 -29 152 -4 3 -24 29 -45 57 -31 44 -46 55 -89 68 -52 15 -71
17 -97 9z m109 -115 c17 -13 31 -28 31 -33 0 -6 -5 -4 -10 4 -6 10 -26 15 -58
15 -41 0 -53 -5 -76 -30 -51 -55 -58 -101 -25 -165 28 -54 81 -71 145 -48 24
8 44 14 44 12 0 -19 -38 -74 -64 -92 -58 -40 -119 -24 -152 41 -9 18 -22 35
-27 39 -14 9 -15 166 -1 176 5 4 18 24 27 44 32 69 102 84 166 37z"/>
<path d="M2265 3460 c-4 -22 -11 -40 -16 -40 -5 0 -9 -34 -9 -75 0 -41 3 -75
8 -75 4 0 13 -19 20 -42 14 -45 70 -138 83 -138 5 0 25 -11 45 -25 20 -13 51
-27 70 -31 19 -3 34 -10 34 -15 0 -5 32 -9 70 -9 40 0 70 4 70 10 0 6 8 10 19
10 29 0 104 36 129 62 61 64 76 86 93 135 22 61 24 145 7 220 l-13 53 -301 0
-302 0 -7 -40z m513 -82 c-3 -41 -5 -43 -48 -56 -56 -17 -294 -12 -327 6 -18
10 -23 22 -23 52 l0 40 201 0 200 0 -3 -42z"/>
</g>
</svg>
